<svg width="15" height="15" viewBox="0 0 15 15" fill="none" xmlns="http://www.w3.org/2000/svg">
<path d="M10.7506 7.50003L14.5681 3.68257C14.8456 3.40509 14.8456 2.9552 14.5681 2.67777L12.3223 0.431973C12.0448 0.154491 11.5949 0.154491 11.3175 0.431973L7.50005 4.24943L3.68259 0.431973C3.40511 0.154491 2.95521 0.154491 2.67779 0.431973L0.431988 2.67777C0.154506 2.95525 0.154506 3.40515 0.431988 3.68257L4.24945 7.50003L0.431988 11.3175C0.154506 11.595 0.154506 12.0449 0.431988 12.3223L2.67779 14.5681C2.95527 14.8456 3.40516 14.8456 3.68259 14.5681L7.50005 10.7507L11.3176 14.5681C11.595 14.8456 12.0449 14.8456 12.3224 14.5681L14.5682 12.3223C14.8456 12.0449 14.8456 11.595 14.5682 11.3175L10.7506 7.50003Z" fill="#FF4853"/>
</svg>
